<svg xmlns="http://www.w3.org/2000/svg" width="2500" height="1057" style="fill: white;" viewBox="108.364 20.427 281.045 118.852"><path d="M305.899 20.433h24.766c.076.057.146.138.229.163 1.181.35 2.005 1.135 2.603 2.168.72 1.244 1.325 2.545 1.683 3.941 1.175 4.603 2.335 9.209 3.505 13.811 1.599 6.286 3.195 12.57 4.799 18.854.042.169.117.33.232.639 4.494-13.253 8.933-26.333 13.366-39.412h1.003l23.475-.001c2.617 0 5.233-.007 7.851-.01v.15c-.463.336-.709.811-.908 1.332-10.777 28.022-21.559 56.042-32.34 84.062-.207.537-.424 1.069-.638 1.606h-25.546l-11.568-51.494-.156-.001-11.295 51.52h-25.302l-12.43-31.832-.16.039v21.106c0 1.761.006 3.521-.002 5.283-.01 1.75.045 3.5-.039 5.312h-.894c-3.498 0-6.997.008-10.495-.006a29.076 29.076 0 0 1-2.639-.122c-1.783-.165-3.452-.689-4.894-1.793-1.664-1.273-3.201-2.703-4.516-4.327-10.67-13.185-21.312-26.393-31.963-39.591-.165-.204-.347-.396-.52-.594-.05.018-.103.033-.152.052v34.838c0 1.938.007 3.878-.003 5.813-.01 1.928.045 3.855-.035 5.792h-23.369v-5.695-5.662-5.663-5.663-5.663-5.737-5.662-5.662-5.663c0-1.89.005-3.775-.002-5.663-.008-1.874.033-3.751-.025-5.629h-23.456v62.297c-.745.174-24.193.16-24.835-.013V45.34h-21.783c-.132-.273-.244-.496-.346-.723l-4.534-10.287c-1.906-4.325-3.812-8.653-5.728-12.976-.102-.229-.304-.418-.458-.626.062-.095-.147-.32.15-.304.176.009.353.001.528.001h101.101c.19.048.378.12.571.142 1.63.189 3.06.819 4.212 1.993a20.19 20.19 0 0 1 1.672 1.941c3.994 5.272 7.968 10.562 11.958 15.84 4.99 6.604 9.99 13.198 14.989 19.793.138.181.221.447.563.491v-.718l.025-23.701c.003-2.364-.002-4.729.017-7.094.013-1.548.232-3.06.875-4.484.952-2.107 2.532-3.462 4.805-3.983.264-.061.522-.146.784-.22h25.973c.116.041.229.107.348.121 1.469.174 2.66.87 3.654 1.934a8.565 8.565 0 0 1 1.911 3.217c.304.933.595 1.866.89 2.803 3.281 10.398 6.562 20.801 9.846 31.199.077.246.181.484.326.866.061-.25.082-.32.097-.395.567-3.268 1.133-6.538 1.702-9.806.943-5.423 1.888-10.844 2.834-16.265.445-2.551.822-5.114 1.366-7.646.652-3.025 2.445-5.068 5.536-5.828.262-.056.525-.125.786-.192zM307.259 139.278l-7.646-22.078c.161-.05.229-.088.297-.088 1.258-.004 2.515-.003 3.873-.003l5.229 16.223c.732-1.896 1.251-3.687 1.849-5.446.604-1.785 1.188-3.577 1.777-5.367.59-1.788 1.179-3.58 1.778-5.405h3.323c1.76 5.322 3.528 10.675 5.298 16.024l.172.005c1.721-5.336 3.439-10.671 5.156-15.997h4.079l-7.668 22.134h-3.322c-.104-.256-.218-.506-.306-.765-1.604-4.677-3.203-9.354-4.806-14.029-.083-.241-.175-.48-.264-.722-.218.261-.308.49-.389.722-1.503 4.393-3.005 8.784-4.512 13.177-.187.543-.398 1.078-.6 1.617-1.102-.002-2.211-.002-3.318-.002zM358.756 139.065v-21.902c.215-.021.406-.056.601-.056 3.095-.004 6.188-.015 9.283.003 1.339.01 2.659.186 3.9.735 2.851 1.265 4.062 4.347 2.833 7.179-.385.881-.988 1.568-1.767 2.115-.242.171-.486.338-.792.549.455.213.836.385 1.21.567 1.994.979 3.033 2.549 3.018 4.808-.017 2.275-.987 3.956-3.007 5.017a8.809 8.809 0 0 1-3.986 1.021c-3.672.052-7.347.028-11.019.03-.07.001-.141-.031-.274-.066zm3.838-3.431c2.56 0 5.047.028 7.534-.022.53-.009 1.083-.237 1.576-.467 1.047-.486 1.498-1.381 1.482-2.508-.015-1.104-.501-1.963-1.528-2.395-.593-.25-1.25-.453-1.885-.476-2.263-.071-4.527-.058-6.792-.071-.118-.001-.236.045-.389.075.002 1.955.002 3.881.002 5.864zm-.005-9.288c.148.033.221.063.293.063 1.735.001 3.47.019 5.205-.012.831-.014 1.649-.158 2.407-.546 1.065-.543 1.492-1.432 1.453-2.594-.039-1.169-.636-1.964-1.707-2.331a6.857 6.857 0 0 0-1.99-.347c-1.684-.048-3.369-.019-5.055-.014-.191 0-.385.034-.606.058v5.723zM214.812 117.145h3.832v21.99c-1.018 0-2.013.028-3.007-.023-.213-.012-.446-.287-.606-.491-1.963-2.521-3.915-5.052-5.869-7.578-1.738-2.25-3.478-4.498-5.218-6.747-.137-.177-.285-.346-.425-.512-.049.021-.073.028-.095.043-.017.013-.038.03-.044.05a.584.584 0 0 0-.023.147c-.012 4.981-.022 9.963-.033 14.944 0 .02-.024.04-.071.116h-3.725v-21.977c1.139 0 2.239-.025 3.335.022.211.011.446.291.605.497 1.933 2.479 3.852 4.972 5.775 7.459l4.987 6.448c.148.188.309.37.581.699l.001-15.087zM167.758 139.055v-21.896h16.252c.057 1.104.009 2.222.025 3.442-2.094.055-4.146.019-6.195.024-2.056.007-4.11.001-6.213.001v5.63h10.861c.173.607.199 2.563.055 3.492h-10.788c-.212.595-.255 4.977-.066 5.896h12.447v3.367c-.515.157-15.346.206-16.378.044zM224.99 139.055v-21.896h16.252c.058 1.104.009 2.221.025 3.446-2.094.045-4.146.016-6.194.021-2.056.006-4.11.001-6.215.001v5.63h10.862c.173.606.2 2.562.052 3.514h-10.915v5.874h12.511v3.366c-.514.156-15.342.206-16.378.044zM337.068 117.133h16.165c.186.569.07 1.146.092 1.71.02.551.005 1.103.005 1.765-.86.008-1.678.018-2.495.021-.805.003-1.61 0-2.415 0h-7.378c-.187.56-.224 4.73-.051 5.633h10.883v3.487h-10.819c-.198.59-.238 4.939-.063 5.897h12.44v3.369c-.521.151-15.396.195-16.362.04-.002-7.275-.002-14.557-.002-21.922zM161.364 139.101h-3.747v-9.157h-10.572c-.021 3.023.003 6.055-.013 9.139h-3.714c-.164-.512-.209-21.003-.037-21.934h3.739v9.08h10.556v-9.075h3.759c.155.535.19 21.096.029 21.947zM265.293 117.141l-7.659 10.743c2.634 3.717 5.257 7.418 7.944 11.213-.354.02-.571.04-.787.041-.98.004-1.963-.031-2.941.014-.588.026-.953-.153-1.293-.655-1.578-2.334-3.199-4.638-4.807-6.95-.143-.202-.297-.396-.503-.669-.192.265-.354.478-.507.692-1.626 2.331-3.26 4.656-4.867 7-.285.414-.585.605-1.104.582-.979-.044-1.961-.01-2.942-.014-.219-.001-.438-.02-.804-.038 2.694-3.764 5.319-7.432 7.981-11.148-2.546-3.579-5.077-7.137-7.675-10.785.306-.027.491-.059.677-.06 1.083-.004 2.164.018 3.246-.012.452-.012.729.139.984.515 1.532 2.243 3.086 4.472 4.636 6.701.14.202.294.396.479.642.184-.246.334-.438.475-.639 1.542-2.206 3.088-4.409 4.611-6.626.28-.406.569-.624 1.101-.597 1.003.048 2.011.013 3.019.015.191 0 .382.016.736.035zM279.562 120.713v18.371h-3.918c-.047-1.208-.018-2.431-.021-3.649-.006-1.207 0-2.415 0-3.621v-3.697-3.622-3.771h-6.951v-3.569h17.83v3.56c-2.311-.002-4.583-.002-6.94-.002zM131.508 139.112h-3.909c-.006-1.041-.013-2.062-.016-3.083-.002-1.006 0-2.012 0-3.019v-3.095-3.02-3.094-3.062h-6.823c-.181-.592-.207-2.757-.054-3.593h17.716c.021.235.049.432.05.625.006.95.003 1.9.003 2.94h-6.967v18.401z"/></svg>