<?xml version="1.0" encoding="iso-8859-1"?>
<!-- Generator: Adobe Illustrator 19.0.0, SVG Export Plug-In . SVG Version: 6.00 Build 0)  -->
<svg version="1.1" id="Layer_1" xmlns="http://www.w3.org/2000/svg" xmlns:xlink="http://www.w3.org/1999/xlink" x="0px" y="0px"
	 viewBox="0 0 496 496" style="enable-background:new 0 0 496 496;" xml:space="preserve">
<g>
	<g>
		<g>
			<path d="M345.336,281.976l88.64-88.64C440.304,197.528,447.864,200,456,200c22.056,0,40-17.944,40-40c0-22.056-17.944-40-40-40
				c-22.056,0-40,17.944-40,40c0,8.136,2.472,15.696,6.664,22.024l-88.64,88.64C327.696,266.472,320.136,264,312,264
				c-5.536,0-10.816,1.136-15.616,3.184l-60.872-81.16C238.288,180.576,240,174.512,240,168c0-22.056-17.944-40-40-40
				c-22.056,0-40,17.944-40,40c0,8.072,2.44,15.56,6.568,21.856L57.128,292c-5.216-2.488-10.976-4-17.128-4
				c-22.056,0-40,17.944-40,40c0,22.056,17.944,40,40,40c22.056,0,40-17.944,40-40c0-10.04-3.848-19.112-9.976-26.144
				l107.792-100.608C184.176,205.504,191.8,208,200,208c9.568,0,18.248-3.52,25.144-9.144l58.096,77.464
				C276.312,283.512,272,293.248,272,304c0,22.056,17.944,40,40,40c22.056,0,40-17.944,40-40
				C352,295.864,349.528,288.304,345.336,281.976z M456,136c13.232,0,24,10.768,24,24s-10.768,24-24,24s-24-10.768-24-24
				S442.768,136,456,136z M40,352c-13.232,0-24-10.768-24-24s10.768-24,24-24s24,10.768,24,24S53.232,352,40,352z M200,192
				c-13.232,0-24-10.768-24-24s10.768-24,24-24s24,10.768,24,24S213.232,192,200,192z M312,328c-13.232,0-24-10.768-24-24
				s10.768-24,24-24s24,10.768,24,24S325.232,328,312,328z"/>
			<path d="M320,112h45.336L408,144V56c0-30.872-25.128-56-56-56h-32c-30.872,0-56,25.128-56,56S289.128,112,320,112z M320,16h32
				c22.056,0,40,17.944,40,40v56l-21.336-16H320c-22.056,0-40-17.944-40-40C280,33.944,297.944,16,320,16z"/>
			<rect x="304" y="32" width="64" height="16"/>
			<rect x="304" y="64" width="32" height="16"/>
			<rect x="352" y="64" width="16" height="16"/>
			<path d="M56,144h45.336L144,176V88c0-30.872-25.128-56-56-56H56C25.128,32,0,57.128,0,88S25.128,144,56,144z M56,48h32
				c22.056,0,40,17.944,40,40v56l-21.336-16H56c-22.056,0-40-17.944-40-40C16,65.944,33.944,48,56,48z"/>
			<rect x="40" y="64" width="64" height="16"/>
			<rect x="40" y="96" width="32" height="16"/>
			<rect x="88" y="96" width="16" height="16"/>
			<path d="M168,384h-45.336L80,352v88c0,30.872,25.128,56,56,56h32c30.872,0,56-25.128,56-56S198.872,384,168,384z M168,480h-32
				c-22.056,0-40-17.944-40-40v-56l21.336,16H168c22.056,0,40,17.944,40,40C208,462.056,190.056,480,168,480z"/>
			<rect x="120" y="448" width="64" height="16"/>
			<rect x="152" y="416" width="32" height="16"/>
			<rect x="120" y="416" width="16" height="16"/>
			<path d="M440,368h-45.336L352,336v88c0,30.872,25.128,56,56,56h32c30.872,0,56-25.128,56-56S470.872,368,440,368z M440,464h-32
				c-22.056,0-40-17.944-40-40v-56l21.336,16H440c22.056,0,40,17.944,40,40C480,446.056,462.056,464,440,464z"/>
			<rect x="392" y="432" width="64" height="16"/>
			<rect x="424" y="400" width="32" height="16"/>
			<rect x="392" y="400" width="16" height="16"/>
		</g>
	</g>
</g>
<g>
</g>
<g>
</g>
<g>
</g>
<g>
</g>
<g>
</g>
<g>
</g>
<g>
</g>
<g>
</g>
<g>
</g>
<g>
</g>
<g>
</g>
<g>
</g>
<g>
</g>
<g>
</g>
<g>
</g>
</svg>
