<?xml version='1.0' encoding='iso-8859-1'?>
<svg version="1.1" xmlns="http://www.w3.org/2000/svg" viewBox="0 0 470 470" xmlns:xlink="http://www.w3.org/1999/xlink" enable-background="new 0 0 470 470">
  <g>
    <path d="M235,148.009c40.806,0,74.004-33.198,74.004-74.005C309.004,33.198,275.806,0,235,0s-74.004,33.198-74.004,74.004   C160.996,114.811,194.194,148.009,235,148.009z M235,15c32.535,0,59.004,26.469,59.004,59.004S267.535,133.009,235,133.009   s-59.004-26.47-59.004-59.005S202.465,15,235,15z"/>
    <path d="m235,178.009c59.812,0 108.922,46.69 112.793,105.539h-173.333c-4.142,0-7.5,3.357-7.5,7.5s3.358,7.5 7.5,7.5h181.08c4.142,0 7.5-3.357 7.5-7.5 0-70.601-57.438-128.039-128.04-128.039s-128.04,57.438-128.04,128.039c0,4.143 3.358,7.5 7.5,7.5h30c4.142,0 7.5-3.357 7.5-7.5s-3.358-7.5-7.5-7.5h-22.254c3.872-58.849 52.983-105.539 112.794-105.539z"/>
    <path d="m140.408,377.712l-41.143-6.905-19.281-36.995c-1.292-2.479-3.855-4.034-6.651-4.034s-5.359,1.555-6.651,4.034l-19.281,36.995-41.143,6.905c-2.757,0.463-5.028,2.42-5.892,5.079-0.864,2.658-0.177,5.577 1.781,7.571l29.227,29.77-6.147,41.263c-0.412,2.766 0.748,5.53 3.01,7.173 2.26,1.644 5.249,1.892 7.751,0.646l37.344-18.597 37.344,18.597c1.058,0.526 2.203,0.786 3.342,0.786 1.557,0 3.104-0.484 4.409-1.433 2.262-1.643 3.422-4.407 3.01-7.173l-6.147-41.263 29.227-29.77c1.958-1.994 2.645-4.913 1.781-7.571-0.862-2.658-3.133-4.615-5.89-5.078zm-38.437,34.577c-1.647,1.678-2.413,4.032-2.066,6.359l4.577,30.723-27.805-13.847c-2.105-1.049-4.581-1.049-6.687,0l-27.806,13.847 4.577-30.723c0.347-2.327-0.418-4.682-2.066-6.359l-21.762-22.166 30.634-5.142c2.32-0.39 4.323-1.845 5.41-3.931l14.356-27.546 14.356,27.546c1.087,2.086 3.09,3.541 5.41,3.931l30.634,5.142-21.762,22.166z"/>
    <path d="m302.075,377.712l-41.143-6.905-19.281-36.995c-1.292-2.479-3.855-4.034-6.651-4.034s-5.359,1.555-6.651,4.034l-19.281,36.995-41.143,6.905c-2.757,0.463-5.028,2.42-5.892,5.079-0.864,2.658-0.177,5.577 1.781,7.571l29.227,29.77-6.146,41.263c-0.412,2.766 0.748,5.53 3.01,7.173 2.26,1.644 5.249,1.892 7.751,0.646l37.344-18.597 37.344,18.597c1.058,0.526 2.203,0.786 3.342,0.786 1.557,0 3.104-0.484 4.409-1.433 2.262-1.643 3.422-4.407 3.01-7.173l-6.146-41.263 29.227-29.77c1.958-1.994 2.645-4.913 1.781-7.571-0.864-2.658-3.135-4.615-5.892-5.078zm-38.437,34.577c-1.647,1.678-2.413,4.032-2.066,6.359l4.576,30.723-27.805-13.847c-1.053-0.524-2.198-0.786-3.343-0.786s-2.291,0.262-3.343,0.786l-27.805,13.847 4.576-30.723c0.347-2.327-0.418-4.682-2.066-6.359l-21.762-22.166 30.634-5.142c2.32-0.39 4.323-1.845 5.41-3.931l14.356-27.545 14.356,27.546c1.087,2.086 3.09,3.541 5.41,3.931l30.634,5.142-21.762,22.165z"/>
    <path d="m469.633,382.791c-0.864-2.659-3.134-4.616-5.892-5.079l-41.143-6.905-19.281-36.995c-1.292-2.479-3.855-4.034-6.651-4.034s-5.359,1.555-6.651,4.034l-19.281,36.995-41.143,6.905c-2.757,0.463-5.028,2.42-5.892,5.079-0.864,2.658-0.177,5.577 1.781,7.571l29.227,29.77-6.147,41.263c-0.412,2.766 0.748,5.53 3.01,7.173 2.26,1.644 5.249,1.892 7.751,0.646l37.344-18.597 37.344,18.597c1.058,0.526 2.203,0.786 3.342,0.786 1.557,0 3.104-0.484 4.409-1.433 2.262-1.643 3.422-4.407 3.01-7.173l-6.147-41.263 29.227-29.77c1.96-1.993 2.647-4.912 1.783-7.57zm-44.328,29.498c-1.647,1.678-2.413,4.032-2.066,6.359l4.577,30.723-27.806-13.847c-1.053-0.524-2.198-0.786-3.343-0.786-1.146,0-2.291,0.262-3.343,0.786l-27.805,13.847 4.577-30.723c0.347-2.327-0.418-4.682-2.066-6.359l-21.762-22.166 30.634-5.142c2.32-0.39 4.323-1.845 5.41-3.931l14.356-27.546 14.356,27.546c1.087,2.086 3.09,3.541 5.41,3.931l30.634,5.142-21.763,22.166z"/>
    <path d="m235,108.009c9.831,0 19.184-4.272 25.66-11.721 2.717-3.126 2.387-7.863-0.739-10.581-3.127-2.718-7.864-2.387-10.581,0.739-3.625,4.171-8.853,6.563-14.34,6.563s-10.714-2.392-14.34-6.563c-2.718-3.126-7.455-3.456-10.581-0.739-3.126,2.718-3.457,7.455-0.739,10.581 6.476,7.448 15.829,11.721 25.66,11.721z"/>
  </g>
</svg>
