<svg width="320" height="309" viewBox="0 0 380 139" xmlns="http://www.w3.org/2000/svg" xmlns:xlink="http://www.w3.org/1999/xlink"><title>hero-graphic-mobile</title><defs><path id="a" d="M0 0h320v353.174H0z"/><linearGradient x1="0%" y1="112.252%" x2="80.907%" y2="30.468%" id="c"><stop stop-color="#200F6E" offset="0%"/><stop stop-color="#220C82" offset="37.963%"/><stop stop-color="#230A91" offset="68.892%"/><stop stop-color="#2409A1" offset="100%"/></linearGradient><linearGradient x1="74.091%" y1="13.339%" x2="71.89%" y2="0%" id="d"><stop stop-color="#220F7D" offset="0%"/><stop stop-color="#210D7B" stop-opacity=".86" offset="32.272%"/><stop stop-color="#210D7B" stop-opacity=".335" offset="100%"/></linearGradient><linearGradient x1="77.901%" y1="64.197%" x2="37.933%" y2="16.179%" id="e"><stop stop-color="#200F6E" offset="0%"/><stop stop-color="#210E7C" offset="45.161%"/><stop stop-color="#210C82" offset="77.498%"/><stop stop-color="#230F7C" offset="100%"/></linearGradient><linearGradient x1="52.662%" y1="-6.366%" x2="60.389%" y2="25.074%" id="f"><stop stop-color="#3E1ECE" stop-opacity=".396" offset="0%"/><stop stop-color="#3013B5" stop-opacity=".855" offset="33.73%"/><stop stop-color="#3213BB" offset="53.679%"/><stop stop-color="#3014B0" offset="100%"/></linearGradient></defs><g transform="translate(0 -45)" fill="none" fill-rule="evenodd"><mask id="b" fill="#fff"><use xlink:href="#a"/></mask><g mask="url(#b)"><path d="M443.895-7.85h268.956s64.047-16.906 64.047-7.555c0 2.08-22.979 42.228-53.954 68.163-30.976 25.935-68.867 51.456-52.256 84.982 5.15 10.392 13.37 23.42 18.214 38.033 4.844 14.614 13.47 61.332 10.603 87.493-4.355 39.757-63.001 211.125-63.001 211.125l-220.188 27.54 27.58-509.78z" fill="url(#c)" transform="rotate(-97 424.147 397.703)"/><path d="M49.548 610.78c-14.041.001-26.518-8.794-31.01-21.86C1.373 539.863.114 491.93 0 442.815 0 239.448 126.33 74.012 281.553 74.012c63.508 0 129.82 30.739 186.749 86.596a31.762 31.762 0 0 1 .028 45.489c-12.781 12.57-33.518 12.582-46.315.028-44.57-43.72-94.461-67.77-140.52-67.77-119.177 0-216.099 136.552-216.099 304.404 0 44.955 1.316 85.471 15.048 125.313 3.368 9.817 1.722 20.626-4.423 29.045-6.146 8.42-16.04 13.42-26.588 13.438l.115.225z" fill="url(#d)" fill-rule="nonzero" transform="rotate(8 396.293 -2245.804)"/><path d="M443.965 527.187c-18.09 0-32.755-14.403-32.755-32.17 0-17.769 14.665-32.172 32.755-32.172 48.232 0 65.339-44.225 65.339-82.156V375.8c-2.174-49.9-37.99-118.008-88.568-167.571a31.762 31.762 0 0 1-.029-45.49c12.782-12.569 33.518-12.581 46.315-.028 64.539 63.275 107.907 150.826 107.907 217.81v13.823l-.63.562c-5.606 78.672-57.786 132.281-130.334 132.281z" fill="url(#e)" fill-rule="nonzero" transform="rotate(8 396.293 -2245.804)"/><path d="M445.187 525.196c-77.011 0-130.85-60.24-130.85-146.442 0-117.559 134.855-304.517 294.655-304.517 169.298 0 277.377 197.41 277.377 333.344 0 17.768-14.665 32.172-32.756 32.172-18.09 0-32.755-14.404-32.755-32.172 0-54.34-23.4-123.29-59.675-175.607-53.381-77.154-112.255-93.394-152.248-93.394-115.917 0-229.202 151.724-229.202 240.118 0 37.987 17.165 82.212 65.34 82.212 18.09 0 32.755 14.403 32.755 32.17 0 17.769-14.665 32.172-32.756 32.172l.115-.056z" fill="url(#f)" fill-rule="nonzero" transform="rotate(8 396.293 -2245.804)"/></g></g></svg>