<?xml version="1.0" encoding="UTF-8" standalone="no"?>
<svg width="675px" height="558px" viewBox="0 0 675 558" version="1.1" xmlns="http://www.w3.org/2000/svg" xmlns:xlink="http://www.w3.org/1999/xlink">
    <!-- Generator: Sketch 3.8.1 (29687) - http://www.bohemiancoding.com/sketch -->
    <title>Hero - Egg 1</title>
    <desc>Created with Sketch.</desc>
    <defs>
        <linearGradient x1="98.9025936%" y1="29.8232547%" x2="87.386921%" y2="17.0709006%" id="linearGradient-1">
            <stop stop-color="#FFFFFF" stop-opacity="0.5" offset="0%"></stop>
            <stop stop-color="#FFFFFF" offset="68.4707304%"></stop>
            <stop stop-color="#FFFFFF" offset="100%"></stop>
        </linearGradient>
        <linearGradient x1="41.3078749%" y1="39.7462115%" x2="10.3690212%" y2="67.0499051%" id="linearGradient-2">
            <stop stop-color="#3E86FA" offset="0%"></stop>
            <stop stop-color="#3E86FA" offset="86.2085988%"></stop>
            <stop stop-color="#3E86FA" stop-opacity="0.8" offset="100%"></stop>
        </linearGradient>
        <linearGradient x1="98.5585173%" y1="28.6382334%" x2="87.0357597%" y2="16.7197129%" id="linearGradient-3">
            <stop stop-color="#09DCC1" stop-opacity="0.8" offset="0%"></stop>
            <stop stop-color="#09DCC1" offset="68.7802188%"></stop>
            <stop stop-color="#09DCC1" offset="100%"></stop>
        </linearGradient>
    </defs>
    <g id="_assets" stroke="none" stroke-width="1" fill="none" fill-rule="evenodd">
        <g id="Hero---Egg-1" transform="translate(-930.000000, -852.000000)">
            <g id="Image">
                <g id="Group-20">
                    <path d="M1162.6576,2402.27624 C1356.7899,2535.01022 1582.3055,2550.22206 1717.50454,2496.79101 C1852.70358,2443.35997 1935.7425,2185.36852 1974.18998,2011.25699 C2012.63746,1837.14546 2038.79041,1675.52883 1946.58701,1506.00199 C1854.38361,1336.47516 1668.08323,1292.98775 1526.11111,1334.69846 C1384.13898,1376.40917 1318.79234,1436.38072 1175.49987,1702.62434 C1032.20741,1968.86797 968.52531,2269.54226 1162.6576,2402.27624 Z" id="Path-12-Copy-2" fill="url(#linearGradient-1)" transform="translate(1525.166309, 1922.754888) rotate(-60.000000) translate(-1525.166309, -1922.754888) "></path>
                    <path d="M981.154456,1736.18325 C1156.43016,1832.1261 1445.2586,1833.17733 1546.90246,1473.20257 C1648.54631,1113.2278 1630.46089,710.971374 1422.38182,432.860634 C1214.30274,154.749895 891.186266,122.564344 700.648569,226.170498 C510.110872,329.776652 405.832576,525.235171 405.832576,805.510536 C405.832576,1085.7859 568.670829,1325.3956 608.965611,1379.81685 C649.260394,1434.23811 805.878752,1640.2404 981.154456,1736.18325 Z" id="Path-13" fill="url(#linearGradient-2)" transform="translate(1006.444028, 981.291150) rotate(-130.000000) translate(-1006.444028, -981.291150) "></path>
                    <path d="M1162.6576,2402.27624 C1356.7899,2535.01022 1582.3055,2550.22206 1717.50454,2496.79101 C1852.70358,2443.35997 1935.7425,2185.36852 1974.18998,2011.25699 C2012.63746,1837.14546 2038.79041,1675.52883 1946.58701,1506.00199 C1854.38361,1336.47516 1668.08323,1292.98775 1526.11111,1334.69846 C1384.13898,1376.40917 1318.79234,1436.38072 1175.49987,1702.62434 C1032.20741,1968.86797 968.52531,2269.54226 1162.6576,2402.27624 Z" id="Path-12" fill="url(#linearGradient-3)" style="mix-blend-mode: multiply;" transform="translate(1525.166309, 1922.754888) rotate(-60.000000) translate(-1525.166309, -1922.754888) "></path>
                </g>
            </g>
        </g>
    </g>
</svg>