<svg width="1033" height="800" viewBox="0 0 1033 800" xmlns="http://www.w3.org/2000/svg" xmlns:xlink="http://www.w3.org/1999/xlink"><title>hero-graphic-desktop</title><defs><path id="a" d="M0 0h1440v800H0z"/><linearGradient x1="0%" y1="112.252%" x2="80.907%" y2="30.468%" id="c"><stop stop-color="#200F6E" offset="0%"/><stop stop-color="#220C82" offset="37.963%"/><stop stop-color="#230A91" offset="68.892%"/><stop stop-color="#2409A1" offset="100%"/></linearGradient><linearGradient x1="74.605%" y1="14.406%" x2="76.849%" y2="-1.845%" id="d"><stop stop-color="#220F7D" offset="0%"/><stop stop-color="#210D7B" stop-opacity=".848" offset="50.454%"/><stop stop-color="#210D7B" stop-opacity=".335" offset="100%"/></linearGradient><linearGradient x1="77.901%" y1="64.197%" x2="37.933%" y2="16.179%" id="e"><stop stop-color="#200F6E" offset="0%"/><stop stop-color="#210E7C" offset="45.161%"/><stop stop-color="#210C82" offset="77.498%"/><stop stop-color="#230F7C" offset="100%"/></linearGradient><linearGradient x1="33.326%" y1="0%" x2="40.087%" y2="32.901%" id="f"><stop stop-color="#3E1ECE" stop-opacity=".396" offset="0%"/><stop stop-color="#3013B5" stop-opacity=".855" offset="36.626%"/><stop stop-color="#3213BB" offset="52.275%"/><stop stop-color="#3014B0" offset="100%"/></linearGradient></defs><g fill="none" fill-rule="evenodd"><mask id="b" fill="#fff"><use xlink:href="#a"/></mask><g mask="url(#b)"><path d="M1383.636 129.75h1047.988s249.559-65.876 249.559-29.437c0 8.107-89.534 164.541-210.232 265.597-120.698 101.055-268.339 200.498-203.615 331.131 20.063 40.495 52.099 91.255 70.972 148.198 18.874 56.943 52.483 238.981 41.315 340.917-16.972 154.914-128.329 293.925-128.329 293.925l-867.658 59.66V129.75z" fill="url(#c)" transform="rotate(1 16235.7 -104853.776)"/><path d="M193.064 2229.37c-54.71.007-103.329-34.264-120.832-85.175C5.35 1953.04.446 1766.267 0 1574.895 0 782.473 492.246 137.85 1097.075 137.85c247.46 0 505.845 119.772 727.668 337.42 49.866 48.916 49.916 128.273.112 177.25-49.804 48.976-130.603 49.025-180.468.109-173.669-170.352-368.07-264.068-547.535-264.068-464.378 0-842.034 532.077-842.034 1186.115 0 175.17 5.127 333.04 58.632 488.284 13.126 38.251 6.712 80.369-17.234 113.174-23.946 32.805-62.5 52.291-103.598 52.361l.446.876z" fill="url(#d)" fill-rule="nonzero" transform="rotate(106 1210.868 -11.479)"/><path d="M1729.915 1903.652c-70.489 0-127.632-56.124-127.632-125.356 0-69.231 57.143-125.355 127.632-125.355 187.936 0 254.595-172.323 254.595-320.122v-19.05c-8.472-194.437-148.03-459.819-345.108-652.943-49.865-48.916-49.915-128.273-.111-177.25 49.804-48.976 130.602-49.025 180.468-.109 251.473 246.551 420.46 587.693 420.46 848.695v53.865l-2.452 2.19c-21.848 306.546-225.167 515.435-507.852 515.435z" fill="url(#e)" fill-rule="nonzero" transform="rotate(106 1210.868 -11.479)"/><path d="M1734.676 1895.892c-300.073 0-509.858-234.726-509.858-570.613 0-458.068 525.464-1186.553 1148.128-1186.553 659.672 0 1080.801 769.212 1080.801 1298.88 0 69.232-57.142 125.355-127.631 125.355-70.49 0-127.632-56.123-127.632-125.355 0-211.736-91.182-480.402-232.524-684.255-208-300.634-437.403-363.914-593.237-363.914-451.67 0-893.087 591.196-893.087 935.623 0 148.018 66.881 320.34 254.595 320.34 70.489 0 127.631 56.124 127.631 125.356s-57.142 125.355-127.631 125.355l.445-.219z" fill="url(#f)" fill-rule="nonzero" transform="rotate(106 1210.868 -11.479)"/></g></g></svg>