<svg width="768" height="464" viewBox="0 0 768 464" xmlns="http://www.w3.org/2000/svg" xmlns:xlink="http://www.w3.org/1999/xlink"><title>hero-graphic-tablet</title><defs><path id="a" d="M0 0h768v588H0z"/><linearGradient x1="0%" y1="112.252%" x2="80.907%" y2="30.468%" id="c"><stop stop-color="#200F6E" offset="0%"/><stop stop-color="#220C82" offset="37.963%"/><stop stop-color="#230A91" offset="68.892%"/><stop stop-color="#2409A1" offset="100%"/></linearGradient><linearGradient x1="77.828%" y1="16.837%" x2="69.717%" y2="1.746%" id="d"><stop stop-color="#220F7D" offset="0%"/><stop stop-color="#210D7B" stop-opacity=".848" offset="50.454%"/><stop stop-color="#210D7B" stop-opacity=".335" offset="100%"/></linearGradient><linearGradient x1="77.901%" y1="64.197%" x2="37.933%" y2="16.179%" id="e"><stop stop-color="#200F6E" offset="0%"/><stop stop-color="#210E7C" offset="45.161%"/><stop stop-color="#210C82" offset="77.498%"/><stop stop-color="#230F7C" offset="100%"/></linearGradient><linearGradient x1="54.45%" y1="-6.08%" x2="58.791%" y2="36.34%" id="f"><stop stop-color="#3E1ECE" stop-opacity=".396" offset="0%"/><stop stop-color="#3013B5" stop-opacity=".855" offset="27.741%"/><stop stop-color="#3213BB" offset="44.604%"/><stop stop-color="#3014B0" offset="100%"/></linearGradient></defs><g transform="translate(0 -124)" fill="none" fill-rule="evenodd"><mask id="b" fill="#fff"><use xlink:href="#a"/></mask><g mask="url(#b)"><path d="M1082.159-19.137h655.677s156.138-41.215 156.138-18.417c0 5.071-56.018 102.946-131.533 166.171-75.514 63.226-167.887 125.442-127.392 207.174 12.553 25.335 32.596 57.094 44.404 92.72 11.808 35.627 32.836 149.52 25.849 213.297-10.619 96.922-153.589 514.696-153.589 514.696l-536.79 67.139 67.236-1242.78z" fill="url(#c)" transform="rotate(-97 971.687 997.036)"/><path d="M120.791 1489c-34.23.004-64.648-21.438-75.599-53.29C3.348 1316.114.28 1199.258 0 1079.525c0-495.782 307.976-899.093 686.39-899.093 154.824 0 316.483 74.936 455.268 211.108 31.198 30.605 31.23 80.255.07 110.897-31.16 30.642-81.712 30.673-112.91.069C920.16 395.924 798.532 337.29 686.25 337.29c-290.54 0-526.822 332.896-526.822 742.097 0 109.595 3.208 208.368 36.683 305.497 8.212 23.932 4.2 50.283-10.782 70.808-14.982 20.524-39.104 32.716-64.817 32.76l.28.548z" fill="url(#d)" fill-rule="nonzero" transform="rotate(8 1139.347 -6185.566)"/><path d="M1082.328 1285.213c-44.102 0-79.853-35.114-79.853-78.429 0-43.315 35.751-78.429 79.853-78.429 117.583 0 159.288-107.814 159.288-200.285V916.15c-5.3-121.65-92.616-287.688-215.917-408.517-31.199-30.604-31.23-80.254-.07-110.896 31.16-30.643 81.712-30.673 112.91-.069 157.336 154.256 263.063 367.693 263.063 530.99v33.7l-1.535 1.37c-13.669 191.792-140.876 322.484-317.739 322.484z" fill="url(#e)" fill-rule="nonzero" transform="rotate(8 1139.347 -6185.566)"/><path d="M1085.307 1280.359c-187.742 0-318.995-146.858-318.995-357.007 0-286.592 328.759-742.372 718.331-742.372 412.727 0 676.208 481.26 676.208 812.65 0 43.315-35.752 78.429-79.854 78.429-44.101 0-79.853-35.114-79.853-78.43 0-132.473-57.048-300.564-145.48-428.106-130.136-188.093-273.663-227.684-371.16-227.684-282.59 0-558.764 369.884-558.764 585.376 0 92.608 41.845 200.422 159.288 200.422 44.102 0 79.853 35.114 79.853 78.43 0 43.315-35.751 78.429-79.853 78.429l.28-.137z" fill="url(#f)" fill-rule="nonzero" transform="rotate(8 1139.347 -6185.566)"/></g></g></svg>