<?xml version='1.0' encoding='iso-8859-1'?>
<svg version="1.1" xmlns="http://www.w3.org/2000/svg" viewBox="0 0 470 470" xmlns:xlink="http://www.w3.org/1999/xlink" enable-background="new 0 0 470 470">
  <g>
    <path d="m337.218,228.614c20.688,0 37.519-16.831 37.519-37.518s-16.831-37.518-37.519-37.518-37.518,16.83-37.518,37.518 16.83,37.518 37.518,37.518zm0-60.036c12.417,0 22.519,10.102 22.519,22.518 0,12.417-10.102,22.518-22.519,22.518-12.416,0-22.518-10.102-22.518-22.518-5.68434e-14-12.416 10.102-22.518 22.518-22.518z"/>
    <path d="m337.218,243.614c-10.181,0-20.277,2.529-29.198,7.313-3.65,1.958-5.023,6.504-3.065,10.154 1.957,3.649 6.501,5.022 10.153,3.065 6.749-3.619 14.396-5.532 22.11-5.532 23.313,0 42.708,17.096 46.31,39.408h-46.31c-4.143,0-7.5,3.358-7.5,7.5s3.357,7.5 7.5,7.5h54.408c4.143,0 7.5-3.358 7.5-7.5-1.13687e-13-34.137-27.772-61.908-61.908-61.908z"/>
    <path d="m133.448,298.021h-46.975c3.602-22.312 22.997-39.408 46.31-39.408 7.715,0 15.358,1.912 22.106,5.53 3.65,1.958 8.197,0.585 10.153-3.066 1.958-3.65 0.585-8.196-3.065-10.154-8.92-4.783-19.015-7.311-29.194-7.311-34.137,0-61.908,27.771-61.908,61.908 0,4.142 3.357,7.5 7.5,7.5h55.074c4.143,0 7.5-3.358 7.5-7.5s-3.358-7.499-7.501-7.499z"/>
    <path d="m132.782,228.614c20.688,0 37.518-16.831 37.518-37.518s-16.83-37.518-37.518-37.518-37.519,16.83-37.519,37.518 16.832,37.518 37.519,37.518zm0-60.036c12.416,0 22.518,10.102 22.518,22.518 0,12.417-10.102,22.518-22.518,22.518-12.417,0-22.519-10.102-22.519-22.518 0.001-12.416 10.102-22.518 22.519-22.518z"/>
    <path d="m235,231.326c26.636,0 48.306-21.67 48.306-48.306 0-26.636-21.67-48.306-48.306-48.306s-48.306,21.67-48.306,48.306c-2.84217e-14,26.636 21.67,48.306 48.306,48.306zm0-81.612c18.365,0 33.306,14.941 33.306,33.306 0,18.365-14.94,33.306-33.306,33.306s-33.306-14.941-33.306-33.306c-2.84217e-14-18.365 14.941-33.306 33.306-33.306z"/>
    <path d="m235,246.326c-44.918,0-81.461,36.543-81.461,81.46 0,4.142 3.357,7.5 7.5,7.5h147.921c4.143,0 7.5-3.358 7.5-7.5 0-44.917-36.543-81.46-81.46-81.46zm-66.04,73.96c3.735-33.13 31.928-58.96 66.04-58.96s62.304,25.83 66.039,58.96h-132.079z"/>
    <path d="m462.5,227.5h-18.21c-3.877-109.532-92.258-197.913-201.79-201.789v-18.211c0-4.142-3.357-7.5-7.5-7.5s-7.5,3.358-7.5,7.5v18.211c-109.532,3.876-197.913,92.257-201.79,201.789h-18.21c-4.143,0-7.5,3.358-7.5,7.5s3.357,7.5 7.5,7.5h18.21c3.877,109.532 92.258,197.913 201.79,201.789v18.211c0,4.142 3.357,7.5 7.5,7.5s7.5-3.358 7.5-7.5v-18.211c109.532-3.876 197.913-92.257 201.79-201.789h18.21c4.143,0 7.5-3.358 7.5-7.5s-3.357-7.5-7.5-7.5zm-220,201.779v-17.903c0-4.142-3.357-7.5-7.5-7.5s-7.5,3.358-7.5,7.5v17.903c-101.26-3.861-182.919-85.519-186.78-186.779h17.904c4.143,0 7.5-3.358 7.5-7.5s-3.357-7.5-7.5-7.5h-17.904c3.861-101.26 85.52-182.918 186.78-186.779v17.903c0,4.142 3.357,7.5 7.5,7.5s7.5-3.358 7.5-7.5v-17.903c101.26,3.861 182.918,85.519 186.78,186.779h-17.904c-4.143,0-7.5,3.358-7.5,7.5s3.357,7.5 7.5,7.5h17.904c-3.862,101.26-85.52,182.918-186.78,186.779z"/>
  </g>
</svg>
