<svg width="768" height="493" viewBox="0 0 768 493" xmlns="http://www.w3.org/2000/svg" xmlns:xlink="http://www.w3.org/1999/xlink"><title>testimonial-graphic-tablet</title><defs><path id="a" d="M0 0h768v591.566H0z"/><linearGradient x1="0%" y1="117.213%" y2="15.636%" id="c"><stop stop-color="#200F6E" offset="0%"/><stop stop-color="#220C82" offset="37.963%"/><stop stop-color="#230A91" offset="68.892%"/><stop stop-color="#2409A1" offset="100%"/></linearGradient><linearGradient x1="100%" y1="51.493%" x2="61.336%" y2="50%" id="d"><stop stop-color="#200F6E" stop-opacity=".66" offset="0%"/><stop stop-color="#220F7D" stop-opacity=".863" offset="19.534%"/><stop stop-color="#220F7D" offset="36.325%"/><stop stop-color="#200F6E" offset="64%"/><stop stop-color="#220F7D" offset="82%"/><stop stop-color="#220F7D" offset="100%"/></linearGradient><linearGradient x1="82.755%" y1="51.935%" x2="79.327%" y2="100%" id="e"><stop stop-color="#261482" offset="0%"/><stop stop-color="#321D9E" offset="28.833%"/><stop stop-color="#3E1ECE" offset="72.751%"/><stop stop-color="#3E1ECE" stop-opacity=".726" offset="85.919%"/><stop stop-color="#3E1ECE" stop-opacity=".617" offset="100%"/></linearGradient></defs><g transform="translate(0 -99)" fill="none" fill-rule="evenodd"><mask id="b" fill="#fff"><use xlink:href="#a"/></mask><g mask="url(#b)"><path d="M735.276 469l426.305 66.938s-22.849 271.95-22.849 329.185c0 33.442-87.832 144.087-72.209 217.45 6.19 29.067 90.79 63.624 136.23 107.052 69.247 66.18 107.195 139.5 107.195 139.5l-541.023 20.586L735.276 469z" fill="url(#c)" transform="matrix(0 -1 -1 0 1303.938 1556.151)"/><path d="M1136.227.513c38.97-4.1 76.168 16.672 92.448 51.626 61.952 131.155 79.429 263.83 94.074 400.116 59.327 564.457-243.048 1060.487-673.88 1105.77-176.27 18.526-369.29-47.445-543.593-185.872-39.182-31.11-45.159-87.634-13.35-126.25 31.81-38.615 89.36-44.7 128.543-13.59 136.461 108.344 281.953 160.545 409.79 147.109 330.785-34.767 559.962-442.05 510.995-907.934-13.114-124.776-28.586-236.847-78.322-343.424-12.213-26.265-10.798-56.746 3.804-81.906 14.6-25.161 40.605-41.928 69.874-45.054" fill="url(#d)" fill-rule="nonzero" transform="matrix(0 -1 -1 0 1303.938 1556.151)"/><path d="M207.964 795.379c12.093-33.237 43.662-55.194 78.46-54.57 130.91 1.635 245.456 39.952 361.81 81.995 481.381 175.209 764.14 616.768 630.409 984.191-54.715 150.328-184.604 280.81-365.868 367.44-40.74 19.476-88.96 1.96-107.7-39.124-18.74-41.083-.905-90.178 39.836-109.655 141.885-67.834 241.798-165.208 281.479-274.23 102.676-282.101-137.049-629.165-534.365-773.777-106.412-38.73-203.45-70.522-309.587-72.344-26.14-.484-50.307-13.692-64.94-35.492-14.635-21.8-17.948-49.53-8.903-74.511" fill="url(#e)" fill-rule="nonzero" transform="scale(1 -1) rotate(4 32659.688 -12774.526)"/></g></g></svg>