<svg width="320" height="319" viewBox="0 0 320 319" xmlns="http://www.w3.org/2000/svg" xmlns:xlink="http://www.w3.org/1999/xlink"><title>testimonial-graphic-mobile</title><defs><path id="a" d="M0 0h319.573v359.166H0z"/><linearGradient x1="0%" y1="117.213%" y2="15.636%" id="c"><stop stop-color="#200F6E" offset="0%"/><stop stop-color="#220C82" offset="37.963%"/><stop stop-color="#230A91" offset="68.892%"/><stop stop-color="#2409A1" offset="100%"/></linearGradient><linearGradient x1="100%" y1="51.493%" x2="61.336%" y2="50%" id="d"><stop stop-color="#200F6E" stop-opacity=".66" offset="0%"/><stop stop-color="#220F7D" stop-opacity=".863" offset="19.534%"/><stop stop-color="#220F7D" offset="36.325%"/><stop stop-color="#200F6E" offset="64%"/><stop stop-color="#220F7D" offset="82%"/><stop stop-color="#220F7D" offset="100%"/></linearGradient><linearGradient x1="82.755%" y1="51.935%" x2="79.937%" y2="100.991%" id="e"><stop stop-color="#261482" offset="0%"/><stop stop-color="#321D9E" offset="28.833%"/><stop stop-color="#3E1ECE" offset="71.966%"/><stop stop-color="#3E1ECE" stop-opacity=".726" offset="85.919%"/><stop stop-color="#3E1ECE" stop-opacity=".617" offset="100%"/></linearGradient></defs><g transform="translate(0 -41)" fill="none" fill-rule="evenodd"><mask id="b" fill="#fff"><use xlink:href="#a"/></mask><g mask="url(#b)"><path d="M270.86 196.521l212.486 26.488s-9.508 113.162-9.508 136.978c0 13.915-36.548 59.956-30.047 90.483 2.576 12.095 37.779 26.475 56.687 44.545 28.815 27.539 44.605 58.048 44.605 58.048H270.86V196.52z" fill="url(#c)" transform="matrix(0 -1 -1 0 542.582 647.53)"/><path d="M472.796.214c16.216-1.707 31.694 6.937 38.468 21.482 25.78 54.575 33.052 109.782 39.146 166.492C575.096 423.064 449.275 629.468 270 648.31c-73.348 7.71-153.665-19.742-226.194-77.343a36.885 36.885 0 0 1-5.555-52.534c13.236-16.068 37.183-18.6 53.487-5.654 56.783 45.082 117.324 66.803 170.518 61.213 137.643-14.467 233.006-183.942 212.63-377.8-5.456-51.922-11.894-98.555-32.59-142.903-5.082-10.93-4.493-23.613 1.583-34.082C449.955 8.737 460.776 1.76 472.955.459" fill="url(#d)" fill-rule="nonzero" transform="matrix(0 -1 -1 0 542.582 647.53)"/><path d="M86.536 330.965c5.032-13.83 18.168-22.966 32.648-22.707 54.473.68 102.137 16.625 150.553 34.12 200.308 72.905 317.966 256.643 262.32 409.531-22.768 62.553-76.816 116.848-152.242 152.896A33.292 33.292 0 0 1 335 888.525c-7.798-17.095-.377-37.524 16.576-45.628 59.04-28.227 100.615-68.746 117.126-114.11C511.427 611.4 411.675 466.983 246.348 406.81c-44.28-16.116-84.658-29.345-128.823-30.103-10.876-.201-20.933-5.698-27.022-14.769-6.09-9.071-7.468-20.61-3.705-31.005" fill="url(#e)" fill-rule="nonzero" transform="scale(1 -1) rotate(4 13590.033 -5315.612)"/></g></g></svg>