<svg width="881" height="680" viewBox="450 0 881 680" xmlns="http://www.w3.org/2000/svg" xmlns:xlink="http://www.w3.org/1999/xlink"><title>testimonial-graphic-desktop</title><defs><path id="a" d="M0 0h1440v680H0z"/><linearGradient x1="0%" y1="117.213%" y2="15.636%" id="c"><stop stop-color="#200F6E" offset="0%"/><stop stop-color="#220C82" offset="37.963%"/><stop stop-color="#230A91" offset="68.892%"/><stop stop-color="#2409A1" offset="100%"/></linearGradient><linearGradient x1="97.504%" y1="57.161%" x2="64.463%" y2="53.345%" id="d"><stop stop-color="#200F6E" stop-opacity=".66" offset="0%"/><stop stop-color="#220F7D" stop-opacity=".863" offset="19.534%"/><stop stop-color="#220F7D" offset="36.325%"/><stop stop-color="#200F6E" offset="64%"/><stop stop-color="#220F7D" offset="82%"/><stop stop-color="#220F7D" offset="100%"/></linearGradient><linearGradient x1="86.899%" y1="42.777%" x2="81.445%" y2="90.154%" id="e"><stop stop-color="#261482" offset="0%"/><stop stop-color="#321D9E" offset="28.833%"/><stop stop-color="#3E1ECE" offset="65.944%"/><stop stop-color="#3E1ECE" stop-opacity=".726" offset="85.919%"/><stop stop-color="#3E1ECE" stop-opacity=".617" offset="100%"/></linearGradient></defs><g fill="none" fill-rule="evenodd"><mask id="b" fill="#fff"><use xlink:href="#a"/></mask><g mask="url(#b)"><path d="M1086 992h588.82s-34.125 172.013-34.125 254.477c0 48.183-126.549 207.602-104.039 313.304 22.51 105.702 11.258 112.219 11.258 112.219H1086V992z" fill="url(#c)" transform="translate(-1097 -992)"/><path d="M1637.086.74c56.15-5.908 109.744 24.02 133.2 74.383 89.26 188.969 114.442 380.13 135.543 576.49 85.478 813.274-350.186 1527.96-970.932 1593.202-253.972 26.694-532.076-68.358-783.214-267.805-56.454-44.824-65.066-126.264-19.234-181.902 45.831-55.637 128.75-64.403 185.205-19.58 196.614 156.102 406.24 231.314 590.428 211.955 476.6-50.093 806.798-636.909 736.247-1308.159-18.895-179.779-41.188-341.251-112.847-494.809-17.597-37.841-15.558-81.759 5.48-118.01C1558 30.252 1595.466 6.094 1637.638 1.59" fill="url(#d)" fill-rule="nonzero" transform="translate(-1097 -992)"/><path d="M299.637 1145.989c17.424-47.888 62.908-79.524 113.045-78.626 188.616 2.357 353.655 57.565 521.299 118.14 693.579 252.442 1100.98 888.646 908.299 1418.031-78.834 216.594-265.98 404.593-527.145 529.41-58.7 28.063-128.175 2.826-155.176-56.368-27.001-59.195-1.304-129.93 57.396-157.992 204.429-97.737 348.385-238.035 405.557-395.114 147.938-406.454-197.46-906.507-769.917-1114.864-153.32-55.804-293.132-101.609-446.056-104.234-37.662-.697-72.482-19.728-93.567-51.138-21.085-31.41-25.858-71.363-12.827-107.357" fill="url(#e)" fill-rule="nonzero" transform="rotate(-86 11.298 2198.07)"/></g></g></svg>