<?xml version="1.0" encoding="iso-8859-1"?>
<!-- Generator: Adobe Illustrator 18.0.0, SVG Export Plug-In . SVG Version: 6.00 Build 0)  -->
<!DOCTYPE svg PUBLIC "-//W3C//DTD SVG 1.1//EN" "http://www.w3.org/Graphics/SVG/1.1/DTD/svg11.dtd">
<svg version="1.1" id="Capa_1" xmlns="http://www.w3.org/2000/svg" xmlns:xlink="http://www.w3.org/1999/xlink" x="0px" y="0px"
	 viewBox="0 0 58 58" style="enable-background:new 0 0 58 58;" xml:space="preserve">
<g>
	<path d="M50.466,45.495l6.483-3.241l-17.637-6.498l6.498,17.638l3.242-6.484l6.797,6.797C56.045,53.902,56.301,54,56.557,54
		s0.512-0.098,0.707-0.293c0.391-0.391,0.391-1.023,0-1.414L50.466,45.495z M42.688,39.131l9.232,3.402l-3.887,1.943l-1.943,3.888
		L42.688,39.131z"/>
	<path d="M25.537,19.156c-0.31-0.195-0.697-0.208-1.019-0.033C24.199,19.299,24,19.635,24,20v14c0,0.365,0.199,0.701,0.519,0.877
		C24.669,34.959,24.835,35,25,35c0.187,0,0.373-0.053,0.537-0.156l11-7C36.825,27.66,37,27.342,37,27s-0.175-0.66-0.463-0.844
		L25.537,19.156z M26,32.179V21.821L34.138,27L26,32.179z"/>
	<path d="M57,4H47H11H1C0.447,4,0,4.447,0,5v11v11v11v11c0,0.553,0.447,1,1,1h10h27c0.553,0,1-0.447,1-1s-0.447-1-1-1H12V38V27V16V6
		h34v10v11c0,0.553,0.447,1,1,1h9v10c0,0.553,0.447,1,1,1s1-0.447,1-1V27V16V5C58,4.447,57.553,4,57,4z M2,28h8v9H2V28z M10,26H2v-9
		h8V26z M2,48v-9h8v9H2z M10,15H2V6h8V15z M56,6v9h-8V6H56z M48,26v-9h8v9H48z"/>
</g>
<g>
</g>
<g>
</g>
<g>
</g>
<g>
</g>
<g>
</g>
<g>
</g>
<g>
</g>
<g>
</g>
<g>
</g>
<g>
</g>
<g>
</g>
<g>
</g>
<g>
</g>
<g>
</g>
<g>
</g>
</svg>
